<?xml version="1.0" encoding="UTF-8"?>
<!DOCTYPE svg PUBLIC "-//W3C//DTD SVG 1.1//EN" "http://www.w3.org/Graphics/SVG/1.1/DTD/svg11.dtd">
<svg xmlns="http://www.w3.org/2000/svg" version="1.1" width="328px" height="326px" style="shape-rendering:geometricPrecision; text-rendering:geometricPrecision; image-rendering:optimizeQuality; fill-rule:evenodd; clip-rule:evenodd" xmlns:xlink="http://www.w3.org/1999/xlink">
<g><path style="opacity:1" fill="none" d="M -0.5,-0.5 C 108.833,-0.5 218.167,-0.5 327.5,-0.5C 327.5,108.167 327.5,216.833 327.5,325.5C 218.167,325.5 108.833,325.5 -0.5,325.5C -0.5,216.833 -0.5,108.167 -0.5,-0.5 Z"/></g>
<g><path style="opacity:1" fill="#252e48" d="M 46.5,299.5 C 41.9898,299.884 37.6565,300.551 33.5,301.5C 30.8333,301.5 28.1667,301.5 25.5,301.5C 20.9677,301.818 16.6344,301.485 12.5,300.5C 72.4733,204.184 132.473,107.851 192.5,11.5C 205.162,29.0046 217.662,46.6712 230,64.5C 230.667,65.5 230.667,66.5 230,67.5C 193,127.167 156,186.833 119,246.5C 102.045,273.945 77.8783,291.611 46.5,299.5 Z"/></g>
<g><path style="opacity:1" fill="#5ebbc8" d="M 245.5,87.5 C 246.496,87.4142 247.329,87.7476 248,88.5C 258.386,101.931 266.719,116.597 273,132.5C 276.256,142.943 277.256,153.609 276,164.5C 274.861,167.583 273.528,170.583 272,173.5C 271.097,174.701 269.931,175.535 268.5,176C 242.494,176.833 216.494,176.667 190.5,175.5C 208.86,146.149 227.193,116.816 245.5,87.5 Z"/></g>
<g><path style="opacity:1" fill="#d9e3ef" d="M 231.5,199.5 C 257.328,198.502 283.328,198.169 309.5,198.5C 309.737,199.791 309.404,200.791 308.5,201.5C 283.188,199.509 257.522,198.843 231.5,199.5 Z"/></g>
<g><path style="opacity:1" fill="#3d74b5" d="M 231.5,199.5 C 257.522,198.843 283.188,199.509 308.5,201.5C 295.453,231.388 276.453,256.888 251.5,278C 228.946,294.769 203.613,304.602 175.5,307.5C 132.997,307.832 90.6634,307.499 48.5,306.5C 72.4088,304.148 93.7421,295.648 112.5,281C 124.107,270.399 134.607,258.899 144,246.5C 163.777,223.029 188.61,207.863 218.5,201C 222.848,200.535 227.181,200.035 231.5,199.5 Z"/></g>
<g><path style="opacity:1" fill="#cbcdd4" d="M 46.5,299.5 C 45.7375,300.268 44.7375,300.768 43.5,301C 40.1832,301.498 36.8499,301.665 33.5,301.5C 37.6565,300.551 41.9898,299.884 46.5,299.5 Z"/></g>
<g><path style="opacity:1" fill="#8a909a" d="M 12.5,300.5 C 16.6344,301.485 20.9677,301.818 25.5,301.5C 20.9848,302.812 16.3181,302.812 11.5,301.5C 11.6236,300.893 11.9569,300.56 12.5,300.5 Z"/></g>
<g><path style="opacity:1" fill="#bfd1e2" d="M 42.5,306.5 C 41.5,307.167 40.5,307.833 39.5,308.5C 36.1501,308.665 32.8168,308.498 29.5,308C 33.77,306.925 38.1033,306.425 42.5,306.5 Z"/></g>
<g><path style="opacity:1" fill="#a5c0de" d="M 42.5,306.5 C 44.5,306.5 46.5,306.5 48.5,306.5C 90.6634,307.499 132.997,307.832 175.5,307.5C 130.336,308.499 85.0031,308.832 39.5,308.5C 40.5,307.833 41.5,307.167 42.5,306.5 Z"/></g>
</svg>
