<?xml version="1.0" encoding="UTF-8"?>
<!DOCTYPE svg PUBLIC "-//W3C//DTD SVG 1.1//EN" "http://www.w3.org/Graphics/SVG/1.1/DTD/svg11.dtd">
<svg xmlns="http://www.w3.org/2000/svg" version="1.1" width="679px" height="164px" style="shape-rendering:geometricPrecision; text-rendering:geometricPrecision; image-rendering:optimizeQuality; fill-rule:evenodd; clip-rule:evenodd" xmlns:xlink="http://www.w3.org/1999/xlink">
  <g>
    <path style="opacity:1" fill="none" d="M -0.5,-0.5 C 225.833,-0.5 452.167,-0.5 678.5,-0.5C 678.5,54.1667 678.5,108.833 678.5,163.5C 452.167,163.5 225.833,163.5 -0.5,163.5C -0.5,108.833 -0.5,54.1667 -0.5,-0.5 Z"/>
  </g>
  <g>
    <path style="opacity:1" fill="#ffffff" d="M 234.5,11.5 C 248.474,10.973 254.64,17.6396 253,31.5C 249.578,40.5676 243.078,44.0676 233.5,42C 222.522,36.4019 220.022,28.2353 226,17.5C 228.322,14.6047 231.155,12.6047 234.5,11.5 Z"/>
  </g>
  <g>
    <path style="opacity:1" fill="#ffffff" d="M 60.5,18.5 C 63.5983,18.4125 63.9316,18.9125 61.5,20C 64.1667,20.6667 64.1667,21.3333 61.5,22C 64.1667,22.6667 64.1667,23.3333 61.5,24C 64.1667,24.6667 64.1667,25.3333 61.5,26C 64.1667,26.6667 64.1667,27.3333 61.5,28C 64.1667,28.6667 64.1667,29.3333 61.5,30C 64.1667,30.6667 64.1667,31.3333 61.5,32C 64.1667,32.6667 64.1667,33.3333 61.5,34C 64.1667,34.6667 64.1667,35.3333 61.5,36C 64.1667,36.6667 64.1667,37.3333 61.5,38C 64.1667,38.6667 64.1667,39.3333 61.5,40C 64.1667,40.6667 64.1667,41.3333 61.5,42C 62.756,42.4169 63.4226,43.2502 63.5,44.5C 53.2206,76.6696 43.554,109.003 34.5,141.5C 25.1607,141.666 15.8274,141.5 6.5,141C 17.7333,105.966 28.5666,70.7994 39,35.5C 43.1288,25.8595 50.2954,20.1928 60.5,18.5 Z"/>
  </g>
  <g>
    <path style="opacity:1" fill="#ffffff" d="M 60.5,18.5 C 74.7625,16.3889 84.9292,22.0556 91,35.5C 93.0142,40.7066 94.5142,46.0399 95.5,51.5C 92.9028,51.7208 92.9028,52.2208 95.5,53C 92.8333,53.6667 92.8333,54.3333 95.5,55C 92.8333,55.6667 92.8333,56.3333 95.5,57C 92.8333,57.6667 92.8333,58.3333 95.5,59C 92.8333,59.6667 92.8333,60.3333 95.5,61C 92.8333,61.6667 92.8333,62.3333 95.5,63C 92.8333,63.6667 92.8333,64.3333 95.5,65C 92.8333,65.6667 92.8333,66.3333 95.5,67C 92.8333,67.6667 92.8333,68.3333 95.5,69C 92.8333,69.6667 92.8333,70.3333 95.5,71C 92.8333,71.6667 92.8333,72.3333 95.5,73C 92.8333,73.6667 92.8333,74.3333 95.5,75C 92.8333,75.6667 92.8333,76.3333 95.5,77C 92.8333,77.6667 92.8333,78.3333 95.5,79C 92.8333,79.6667 92.8333,80.3333 95.5,81C 92.8333,81.6667 92.8333,82.3333 95.5,83C 92.8333,83.6667 92.8333,84.3333 95.5,85C 92.8333,85.6667 92.8333,86.3333 95.5,87C 92.8333,87.6667 92.8333,88.3333 95.5,89C 92.8333,89.6667 92.8333,90.3333 95.5,91C 92.8333,91.6667 92.8333,92.3333 95.5,93C 92.8333,93.6667 92.8333,94.3333 95.5,95C 92.8333,95.6667 92.8333,96.3333 95.5,97C 92.8333,97.6667 92.8333,98.3333 95.5,99C 92.8333,99.6667 92.8333,100.333 95.5,101C 92.8333,101.667 92.8333,102.333 95.5,103C 92.8333,103.667 92.8333,104.333 95.5,105C 94.5,105.5 93.5,106 92.5,106.5C 90.422,104.014 87.7553,103.014 84.5,103.5C 78.3024,82.701 71.8024,62.0343 65,41.5C 64.7679,42.7375 64.2679,43.7375 63.5,44.5C 63.4226,43.2502 62.756,42.4169 61.5,42C 64.1667,41.3333 64.1667,40.6667 61.5,40C 64.1667,39.3333 64.1667,38.6667 61.5,38C 64.1667,37.3333 64.1667,36.6667 61.5,36C 64.1667,35.3333 64.1667,34.6667 61.5,34C 64.1667,33.3333 64.1667,32.6667 61.5,32C 64.1667,31.3333 64.1667,30.6667 61.5,30C 64.1667,29.3333 64.1667,28.6667 61.5,28C 64.1667,27.3333 64.1667,26.6667 61.5,26C 64.1667,25.3333 64.1667,24.6667 61.5,24C 64.1667,23.3333 64.1667,22.6667 61.5,22C 64.1667,21.3333 64.1667,20.6667 61.5,20C 63.9316,18.9125 63.5983,18.4125 60.5,18.5 Z"/>
  </g>
  <g>
    <path style="opacity:1" fill="#ffffff" d="M 365.5,141.5 C 356.833,141.5 348.167,141.5 339.5,141.5C 339.799,139.396 339.466,137.396 338.5,135.5C 337.893,135.624 337.56,135.957 337.5,136.5C 327.575,142.987 316.908,144.987 305.5,142.5C 308.216,142.322 310.883,141.822 313.5,141C 308.167,140.333 308.167,139.667 313.5,139C 310.833,138.333 310.833,137.667 313.5,137C 312.167,136.667 310.833,136.333 309.5,136C 312.167,135.333 312.167,134.667 309.5,134C 314.833,133.333 314.833,132.667 309.5,132C 310.833,131.667 312.167,131.333 313.5,131C 310.833,130.333 310.833,129.667 313.5,129C 312.167,128.667 310.833,128.333 309.5,128C 312.167,127.333 312.167,126.667 309.5,126C 314.833,125.333 314.833,124.667 309.5,124C 310.833,123.667 312.167,123.333 313.5,123C 310.833,122.333 310.833,121.667 313.5,121C 312.167,120.667 310.833,120.333 309.5,120C 312.167,119.333 312.167,118.667 309.5,118C 310.094,117.536 310.761,117.369 311.5,117.5C 332.132,118.375 340.965,108.708 338,88.5C 332.512,76.3977 323.345,72.0643 310.5,75.5C 309.047,74.1751 309.381,73.3418 311.5,73C 310.833,72.6667 310.167,72.3333 309.5,72C 314.833,71.3333 314.833,70.6667 309.5,70C 310.833,69.6667 312.167,69.3333 313.5,69C 310.833,68.3333 310.833,67.6667 313.5,67C 312.167,66.6667 310.833,66.3333 309.5,66C 312.167,65.3333 312.167,64.6667 309.5,64C 314.833,63.3333 314.833,62.6667 309.5,62C 310.833,61.6667 312.167,61.3333 313.5,61C 310.833,60.3333 310.833,59.6667 313.5,59C 312.167,58.6667 310.833,58.3333 309.5,58C 312.167,57.3333 312.167,56.6667 309.5,56C 314.833,55.3333 314.833,54.6667 309.5,54C 310.833,53.6667 312.167,53.3333 313.5,53C 310.833,52.3333 310.833,51.6667 313.5,51C 312.167,50.6667 310.833,50.3333 309.5,50C 312.097,49.2208 312.097,48.7208 309.5,48.5C 310.622,47.8442 311.955,47.5108 313.5,47.5C 317.173,47.9533 320.84,48.4533 324.5,49C 329.532,51.185 334.532,53.3517 339.5,55.5C 339.5,43.8333 339.5,32.1667 339.5,20.5C 348.167,20.5 356.833,20.5 365.5,20.5C 365.5,60.8333 365.5,101.167 365.5,141.5 Z"/>
  </g>
  <g>
    <path style="opacity:1" fill="#ffffff" d="M 461.5,73.5 C 461.082,72.7784 460.416,72.2784 459.5,72C 462.167,71.3333 462.167,70.6667 459.5,70C 462.167,69.3333 462.167,68.6667 459.5,68C 460.167,67.6667 460.833,67.3333 461.5,67C 456.167,66.3333 456.167,65.6667 461.5,65C 458.833,64.3333 458.833,63.6667 461.5,63C 458.833,62.3333 458.833,61.6667 461.5,61C 458.833,60.3333 458.833,59.6667 461.5,59C 456.167,58.3333 456.167,57.6667 461.5,57C 458.833,56.3333 458.833,55.6667 461.5,55C 458.833,54.3333 458.833,53.6667 461.5,53C 458.833,52.3333 458.833,51.6667 461.5,51C 459.942,50.79 458.609,50.29 457.5,49.5C 471.167,49.5 484.833,49.5 498.5,49.5C 498.5,39.5 498.5,29.5 498.5,19.5C 507.167,19.5 515.833,19.5 524.5,19.5C 524.5,29.5 524.5,39.5 524.5,49.5C 534.167,49.5 543.833,49.5 553.5,49.5C 553.5,57.5 553.5,65.5 553.5,73.5C 522.833,73.5 492.167,73.5 461.5,73.5 Z"/>
  </g>
  <g>
    <path style="opacity:1" fill="#ffffff" d="M 614.5,48.5 C 639.426,47.4051 656.259,58.7384 665,82.5C 670.363,105.766 663.196,123.932 643.5,137C 632.723,143.196 621.389,145.029 609.5,142.5C 612.216,142.322 614.883,141.822 617.5,141C 616.167,140.667 614.833,140.333 613.5,140C 614.833,139 616.167,138 617.5,137C 616.167,136.667 614.833,136.333 613.5,136C 616.167,135.333 616.167,134.667 613.5,134C 618.833,133.333 618.833,132.667 613.5,132C 614.833,131 616.167,130 617.5,129C 616.167,128.667 614.833,128.333 613.5,128C 616.167,127.333 616.167,126.667 613.5,126C 618.833,125.333 618.833,124.667 613.5,124C 614.833,123 616.167,122 617.5,121C 616.167,120.667 614.833,120.333 613.5,120C 614.167,119.667 614.833,119.333 615.5,119C 614.584,118.722 613.918,118.222 613.5,117.5C 624.869,118.599 633.369,114.266 639,104.5C 642.942,85.2754 635.109,75.2754 615.5,74.5C 615.423,73.2502 614.756,72.4169 613.5,72C 618.833,71.3333 618.833,70.6667 613.5,70C 614.833,69 616.167,68 617.5,67C 616.167,66.6667 614.833,66.3333 613.5,66C 616.167,65.3333 616.167,64.6667 613.5,64C 618.833,63.3333 618.833,62.6667 613.5,62C 614.833,61 616.167,60 617.5,59C 616.167,58.6667 614.833,58.3333 613.5,58C 616.167,57.3333 616.167,56.6667 613.5,56C 618.833,55.3333 618.833,54.6667 613.5,54C 614.833,53 616.167,52 617.5,51C 616.167,50.6667 614.833,50.3333 613.5,50C 614.167,49.6667 614.833,49.3333 615.5,49C 615.272,48.6012 614.938,48.4346 614.5,48.5 Z"/>
  </g>
  <g>
    <path style="opacity:1" fill="#ffffff" d="M 166.5,116.5 C 166.539,117.583 166.873,118.583 167.5,119.5C 169.423,120.308 171.423,120.808 173.5,121C 170.833,121.667 170.833,122.333 173.5,123C 168.167,123.667 168.167,124.333 173.5,125C 170.833,125.667 170.833,126.333 173.5,127C 165.5,127.667 165.5,128.333 173.5,129C 170.833,129.667 170.833,130.333 173.5,131C 168.167,131.667 168.167,132.333 173.5,133C 170.833,133.667 170.833,134.333 173.5,135C 165.5,135.667 165.5,136.333 173.5,137C 170.833,137.667 170.833,138.333 173.5,139C 168.167,139.667 168.167,140.333 173.5,141C 172.244,141.417 171.577,142.25 171.5,143.5C 159.652,144.815 150.485,140.481 144,130.5C 136.768,103.74 129.935,76.9068 123.5,50C 132.494,49.5002 141.494,49.3336 150.5,49.5C 155.991,71.7983 161.325,94.1316 166.5,116.5 Z"/>
  </g>
  <g>
    <path style="opacity:1" fill="#ffffff" d="M 225.5,49.5 C 225.5,80.1667 225.5,110.833 225.5,141.5C 234.167,141.5 242.833,141.5 251.5,141.5C 242.682,142.493 233.682,142.827 224.5,142.5C 224.169,111.329 224.502,80.3288 225.5,49.5 Z"/>
  </g>
  <g>
    <path style="opacity:1" fill="#ffffff" d="M 171.5,143.5 C 171.577,142.25 172.244,141.417 173.5,141C 168.167,140.333 168.167,139.667 173.5,139C 170.833,138.333 170.833,137.667 173.5,137C 165.5,136.333 165.5,135.667 173.5,135C 170.833,134.333 170.833,133.667 173.5,133C 168.167,132.333 168.167,131.667 173.5,131C 170.833,130.333 170.833,129.667 173.5,129C 165.5,128.333 165.5,127.667 173.5,127C 170.833,126.333 170.833,125.667 173.5,125C 168.167,124.333 168.167,123.667 173.5,123C 170.833,122.333 170.833,121.667 173.5,121C 171.423,120.808 169.423,120.308 167.5,119.5C 166.873,118.583 166.539,117.583 166.5,116.5C 167.931,116.119 168.764,115.119 169,113.5C 174.637,92.6191 179.804,71.6191 184.5,50.5C 193.5,49.1667 202.5,49.1667 211.5,50.5C 204.869,75.3573 198.702,100.357 193,125.5C 189.278,135.73 182.111,141.73 171.5,143.5 Z"/>
  </g>
  <g>
    <path style="opacity:1" fill="#ffffff" d="M 225.5,49.5 C 234.167,49.5 242.833,49.5 251.5,49.5C 251.5,80.1667 251.5,110.833 251.5,141.5C 242.833,141.5 234.167,141.5 225.5,141.5C 225.5,110.833 225.5,80.1667 225.5,49.5 Z"/>
  </g>
  <g>
    <path style="opacity:1" fill="#ffffff" d="M 614.5,48.5 C 614.938,48.4346 615.272,48.6012 615.5,49C 614.833,49.3333 614.167,49.6667 613.5,50C 614.833,50.3333 616.167,50.6667 617.5,51C 616.167,52 614.833,53 613.5,54C 618.833,54.6667 618.833,55.3333 613.5,56C 616.167,56.6667 616.167,57.3333 613.5,58C 614.833,58.3333 616.167,58.6667 617.5,59C 616.167,60 614.833,61 613.5,62C 618.833,62.6667 618.833,63.3333 613.5,64C 616.167,64.6667 616.167,65.3333 613.5,66C 614.833,66.3333 616.167,66.6667 617.5,67C 616.167,68 614.833,69 613.5,70C 618.833,70.6667 618.833,71.3333 613.5,72C 614.756,72.4169 615.423,73.2502 615.5,74.5C 601.157,77.8311 595.323,86.8311 598,101.5C 599.139,105.112 600.806,108.446 603,111.5C 606.468,113.707 609.968,115.707 613.5,117.5C 613.918,118.222 614.584,118.722 615.5,119C 614.833,119.333 614.167,119.667 613.5,120C 614.833,120.333 616.167,120.667 617.5,121C 616.167,122 614.833,123 613.5,124C 618.833,124.667 618.833,125.333 613.5,126C 616.167,126.667 616.167,127.333 613.5,128C 614.833,128.333 616.167,128.667 617.5,129C 616.167,130 614.833,131 613.5,132C 618.833,132.667 618.833,133.333 613.5,134C 616.167,134.667 616.167,135.333 613.5,136C 614.833,136.333 616.167,136.667 617.5,137C 616.167,138 614.833,139 613.5,140C 614.833,140.333 616.167,140.667 617.5,141C 614.883,141.822 612.216,142.322 609.5,142.5C 581.415,134.537 568.915,115.87 572,86.5C 577.871,64.4577 592.038,51.7911 614.5,48.5 Z"/>
  </g>
  <g>
    <path style="opacity:1" fill="#ffffff" d="M 309.5,48.5 C 312.097,48.7208 312.097,49.2208 309.5,50C 310.833,50.3333 312.167,50.6667 313.5,51C 310.833,51.6667 310.833,52.3333 313.5,53C 312.167,53.3333 310.833,53.6667 309.5,54C 314.833,54.6667 314.833,55.3333 309.5,56C 312.167,56.6667 312.167,57.3333 309.5,58C 310.833,58.3333 312.167,58.6667 313.5,59C 310.833,59.6667 310.833,60.3333 313.5,61C 312.167,61.3333 310.833,61.6667 309.5,62C 314.833,62.6667 314.833,63.3333 309.5,64C 312.167,64.6667 312.167,65.3333 309.5,66C 310.833,66.3333 312.167,66.6667 313.5,67C 310.833,67.6667 310.833,68.3333 313.5,69C 312.167,69.3333 310.833,69.6667 309.5,70C 314.833,70.6667 314.833,71.3333 309.5,72C 310.167,72.3333 310.833,72.6667 311.5,73C 309.381,73.3418 309.047,74.1751 310.5,75.5C 297.716,80.7361 293.216,90.0694 297,103.5C 299.774,110.443 304.607,115.11 311.5,117.5C 310.761,117.369 310.094,117.536 309.5,118C 312.167,118.667 312.167,119.333 309.5,120C 310.833,120.333 312.167,120.667 313.5,121C 310.833,121.667 310.833,122.333 313.5,123C 312.167,123.333 310.833,123.667 309.5,124C 314.833,124.667 314.833,125.333 309.5,126C 312.167,126.667 312.167,127.333 309.5,128C 310.833,128.333 312.167,128.667 313.5,129C 310.833,129.667 310.833,130.333 313.5,131C 312.167,131.333 310.833,131.667 309.5,132C 314.833,132.667 314.833,133.333 309.5,134C 312.167,134.667 312.167,135.333 309.5,136C 310.833,136.333 312.167,136.667 313.5,137C 310.833,137.667 310.833,138.333 313.5,139C 308.167,139.667 308.167,140.333 313.5,141C 310.883,141.822 308.216,142.322 305.5,142.5C 282.049,135.462 270.049,119.628 269.5,95C 270.921,73.816 281.254,58.816 300.5,50C 303.432,49.0467 306.432,48.5467 309.5,48.5 Z"/>
  </g>
  <g>
    <path style="opacity:1" fill="#ffffff" d="M 457.5,49.5 C 458.609,50.29 459.942,50.79 461.5,51C 458.833,51.6667 458.833,52.3333 461.5,53C 458.833,53.6667 458.833,54.3333 461.5,55C 458.833,55.6667 458.833,56.3333 461.5,57C 456.167,57.6667 456.167,58.3333 461.5,59C 458.833,59.6667 458.833,60.3333 461.5,61C 458.833,61.6667 458.833,62.3333 461.5,63C 458.833,63.6667 458.833,64.3333 461.5,65C 456.167,65.6667 456.167,66.3333 461.5,67C 460.833,67.3333 460.167,67.6667 459.5,68C 462.167,68.6667 462.167,69.3333 459.5,70C 462.167,70.6667 462.167,71.3333 459.5,72C 460.416,72.2784 461.082,72.7784 461.5,73.5C 451.161,73.3335 440.828,73.5002 430.5,74C 413.703,80.0869 408.87,91.2535 416,107.5C 420.487,114.661 426.987,117.994 435.5,117.5C 435.918,118.222 436.584,118.722 437.5,119C 432.167,119.667 432.167,120.333 437.5,121C 434.833,121.667 434.833,122.333 437.5,123C 434.833,123.667 434.833,124.333 437.5,125C 434.833,125.667 434.833,126.333 437.5,127C 432.167,127.667 432.167,128.333 437.5,129C 434.833,129.667 434.833,130.333 437.5,131C 434.833,131.667 434.833,132.333 437.5,133C 434.833,133.667 434.833,134.333 437.5,135C 432.167,135.667 432.167,136.333 437.5,137C 434.833,137.667 434.833,138.333 437.5,139C 434.833,139.667 434.833,140.333 437.5,141C 436.058,141.377 435.058,142.21 434.5,143.5C 409.766,142.946 394.266,130.613 388,106.5C 384.283,82.7692 392.783,64.9359 413.5,53C 417.123,51.8443 420.789,50.8443 424.5,50C 435.495,49.5002 446.495,49.3335 457.5,49.5 Z"/>
  </g>
  <g>
    <path style="opacity:1" fill="#ffffff" d="M 95.5,51.5 C 105.406,81.2228 114.739,111.223 123.5,141.5C 114.494,141.666 105.494,141.5 96.5,141C 92.4215,128.517 88.4215,116.017 84.5,103.5C 87.7553,103.014 90.422,104.014 92.5,106.5C 93.5,106 94.5,105.5 95.5,105C 92.8333,104.333 92.8333,103.667 95.5,103C 92.8333,102.333 92.8333,101.667 95.5,101C 92.8333,100.333 92.8333,99.6667 95.5,99C 92.8333,98.3333 92.8333,97.6667 95.5,97C 92.8333,96.3333 92.8333,95.6667 95.5,95C 92.8333,94.3333 92.8333,93.6667 95.5,93C 92.8333,92.3333 92.8333,91.6667 95.5,91C 92.8333,90.3333 92.8333,89.6667 95.5,89C 92.8333,88.3333 92.8333,87.6667 95.5,87C 92.8333,86.3333 92.8333,85.6667 95.5,85C 92.8333,84.3333 92.8333,83.6667 95.5,83C 92.8333,82.3333 92.8333,81.6667 95.5,81C 92.8333,80.3333 92.8333,79.6667 95.5,79C 92.8333,78.3333 92.8333,77.6667 95.5,77C 92.8333,76.3333 92.8333,75.6667 95.5,75C 92.8333,74.3333 92.8333,73.6667 95.5,73C 92.8333,72.3333 92.8333,71.6667 95.5,71C 92.8333,70.3333 92.8333,69.6667 95.5,69C 92.8333,68.3333 92.8333,67.6667 95.5,67C 92.8333,66.3333 92.8333,65.6667 95.5,65C 92.8333,64.3333 92.8333,63.6667 95.5,63C 92.8333,62.3333 92.8333,61.6667 95.5,61C 92.8333,60.3333 92.8333,59.6667 95.5,59C 92.8333,58.3333 92.8333,57.6667 95.5,57C 92.8333,56.3333 92.8333,55.6667 95.5,55C 92.8333,54.3333 92.8333,53.6667 95.5,53C 92.9028,52.2208 92.9028,51.7208 95.5,51.5 Z"/>
  </g>
  <g>
    <path style="opacity:1" fill="none" d="M 311.5,117.5 C 304.607,115.11 299.774,110.443 297,103.5C 293.216,90.0694 297.716,80.7361 310.5,75.5C 323.345,72.0643 332.512,76.3977 338,88.5C 340.965,108.708 332.132,118.375 311.5,117.5 Z"/>
  </g>
  <g>
    <path style="opacity:1" fill="none" d="M 615.5,74.5 C 635.109,75.2754 642.942,85.2754 639,104.5C 633.369,114.266 624.869,118.599 613.5,117.5C 609.968,115.707 606.468,113.707 603,111.5C 600.806,108.446 599.139,105.112 598,101.5C 595.323,86.8311 601.157,77.8311 615.5,74.5 Z"/>
  </g>
  <g>
    <path style="opacity:1" fill="#ffffff" d="M 498.5,86.5 C 507.167,86.5 515.833,86.5 524.5,86.5C 524.5,97.5 524.5,108.5 524.5,119.5C 534.167,119.5 543.833,119.5 553.5,119.5C 553.5,126.833 553.5,134.167 553.5,141.5C 543.828,141.666 534.161,141.5 524.5,141C 511.668,139.169 503.501,132.002 500,119.5C 498.681,108.544 498.181,97.5438 498.5,86.5 Z"/>
  </g>
  <g>
    <path style="opacity:1" fill="#ffffff" d="M 434.5,143.5 C 435.058,142.21 436.058,141.377 437.5,141C 434.833,140.333 434.833,139.667 437.5,139C 434.833,138.333 434.833,137.667 437.5,137C 432.167,136.333 432.167,135.667 437.5,135C 434.833,134.333 434.833,133.667 437.5,133C 434.833,132.333 434.833,131.667 437.5,131C 434.833,130.333 434.833,129.667 437.5,129C 432.167,128.333 432.167,127.667 437.5,127C 434.833,126.333 434.833,125.667 437.5,125C 434.833,124.333 434.833,123.667 437.5,123C 434.833,122.333 434.833,121.667 437.5,121C 432.167,120.333 432.167,119.667 437.5,119C 436.584,118.722 435.918,118.222 435.5,117.5C 446.506,116.994 453.006,111.327 455,100.5C 455.923,96.2099 456.423,91.8766 456.5,87.5C 465.167,87.5 473.833,87.5 482.5,87.5C 482.5,105.5 482.5,123.5 482.5,141.5C 473.833,141.5 465.167,141.5 456.5,141.5C 456.662,139.473 456.495,137.473 456,135.5C 449.554,140.038 442.387,142.705 434.5,143.5 Z"/>
  </g>
  <g>
    <path style="opacity:1" fill="#ffffff" d="M 337.5,136.5 C 337.56,135.957 337.893,135.624 338.5,135.5C 339.466,137.396 339.799,139.396 339.5,141.5C 348.167,141.5 356.833,141.5 365.5,141.5C 356.682,142.493 347.682,142.827 338.5,142.5C 338.795,140.265 338.461,138.265 337.5,136.5 Z"/>
  </g>
</svg>
